<svg width="892" height="414" viewBox="0 0 892 414" fill="none" xmlns="http://www.w3.org/2000/svg">
<path d="M351.657 350.317C338.219 342.054 325.123 334.008 311.994 325.964C279.204 305.896 246.322 285.951 213.689 265.665C210.204 263.492 208.649 264.453 205.974 266.38C172.469 290.455 138.871 314.407 105.273 338.389C71.551 362.463 37.7977 386.571 4.07531 410.645C2.76872 411.576 1.58657 412.758 0 413.659C0.777728 412.321 1.46213 410.894 2.3643 409.619C42.0285 354.231 81.7238 298.873 121.419 243.517C130.378 230.997 139.338 218.509 148.391 206.053C149.79 204.127 149.853 202.791 148.546 200.678C122.197 158.182 95.9096 115.654 69.6222 73.1264C67.5068 69.7093 65.3293 66.2922 63.0581 62.6886C63.525 62.782 63.9916 62.782 64.3026 62.9993C110.313 91.1129 156.355 119.226 202.303 147.495C204.823 149.049 206.036 148.676 208.182 147.154C236.834 126.589 265.547 106.179 294.262 85.6767C324.778 63.9003 355.267 42.0928 385.754 20.2853C394.588 13.9791 403.423 7.673 412.257 1.39791C413.006 0.869814 413.845 0.434906 414.592 0C392.224 31.4996 368.642 62.5955 345.995 95.8658C331.281 117.487 312.273 137.586 294.385 164.643C284.556 179.523 274.849 194.124 265.019 208.848C293.018 254.515 321.14 300.147 349.199 345.75C350.041 347.148 350.754 348.608 351.657 350.317Z" fill="#E9E9E9"/>
<path d="M202.489 368.212C175.362 367.062 153.741 361.003 133.302 350.565C130.627 349.2 127.982 347.77 125.369 346.34C122.569 344.819 121.947 342.892 123.285 339.819C124.56 336.866 126.893 338.015 128.698 338.823C133.644 341.028 138.435 343.577 143.35 345.876C160.647 353.92 178.814 358.394 197.884 359.698C213.657 360.787 228.994 358.612 244.299 355.35C259.605 352.058 273.603 345.595 287.073 337.829C289.315 336.524 291.742 335.501 294.104 334.382C296.531 333.2 297.559 334.941 298.71 336.557C299.953 338.296 299.081 339.568 297.807 340.531C295.755 342.117 293.513 343.482 291.337 344.942C272.733 357.37 251.795 363.457 230.02 366.689C219.63 368.212 208.959 367.901 202.489 368.212Z" fill="#DB00FF"/>
<path d="M45.231 210.277C45.0755 191.079 46.8798 174.864 51.9195 159.393C56.9592 143.892 63.5854 128.919 72.825 115.281C74.8469 112.299 76.9623 111.585 79.1089 112.89C81.5666 114.412 81.9709 116.773 80.1668 119.972C78.8602 122.333 77.5224 124.694 76.0291 126.962C63.8967 145.445 58.017 166.166 54.8438 187.724C52.4796 203.909 53.4751 220.063 56.3682 236.154C59.1369 251.439 64.4565 265.698 72.6694 279.116C70.7716 277.751 73.8826 281.696 73.136 283.59C72.576 285.05 71.6116 286.822 70.3362 287.441C68.4386 288.375 66.6963 287.349 65.6076 285.299C57.7368 270.575 52.013 255.134 48.4043 238.764C46.1022 228.357 45.6667 217.919 45.1689 210.309L45.231 210.277Z" fill="#DB00FF"/>
<path d="M370.012 203.754C370.012 203.971 370.012 204.157 370.012 204.375C369.452 227.518 366.341 248.456 357.351 268.119C353.089 277.408 348.112 286.355 343.352 295.425C342.295 297.415 339.058 298.564 337.659 297.694C335.45 296.326 335.108 294.276 336.196 292.164C338.342 287.938 340.644 283.808 342.915 279.646C353.212 260.787 358.75 240.596 360.773 219.255C361.894 207.326 361.768 195.459 359.871 183.686C357.009 166.041 351.597 149.173 343.413 133.237C342.232 130.938 341.827 128.173 341.453 125.564C341.174 123.762 342.45 123.234 344.036 123.389C346.493 123.638 348.546 125.315 349.667 127.49C355.609 138.953 361.022 150.695 364.132 163.183C366.653 173.248 367.803 183.655 369.359 193.937C369.919 197.665 369.919 201.486 370.042 203.723L370.012 203.754Z" fill="#DB00FF"/>
<path d="M213.345 44.1741C224.884 44.1741 235.122 47.0319 246.57 49.4241C258.517 51.9402 269.902 56.4137 280.822 61.9432C282.626 62.8751 284.523 63.6205 286.297 64.6146C288.35 65.7951 289.033 67.5036 287.852 69.7713C286.764 71.8528 285.269 72.8467 282.874 71.8217C278.424 69.8958 275.138 67.7455 270.057 64.9875C242.495 54.4566 213.719 50.1073 185.254 54.239C164.877 57.1902 145.59 63.7758 128.138 75.0836C124.881 77.1932 121.865 81.5455 117.341 80.2909C112.021 75.2273 114.263 73.0023 117.343 71.2313C128.853 64.6768 140.394 58.1843 152.963 53.7109C165.468 49.2688 177.742 45.1682 190.963 44.1741C197.714 43.677 204.783 43.9091 213.345 44.1741Z" fill="#DB00FF"/>
<path d="M457.93 182.499C450.706 182.499 444.181 181.105 438.354 178.319C432.527 175.532 427.929 171.516 424.565 166.27C421.2 160.942 419.517 154.754 419.517 147.705C419.517 144.509 419.886 141.189 420.625 137.747C422.595 128.567 426.125 120.616 431.213 113.895C436.301 107.092 442.746 101.887 450.543 98.2811C458.34 94.6747 467.164 92.8715 477.014 92.8715C483.17 92.8715 488.547 93.4862 493.143 94.7156C497.739 95.9451 501.802 97.8713 505.332 100.494L500.9 121.149C497.945 118.28 494.334 116.19 490.065 114.879C485.796 113.567 480.708 112.912 474.798 112.912C466.343 112.912 459.325 115.125 453.744 119.551C448.244 123.977 444.674 130.042 443.033 137.747C442.294 141.025 441.925 144.058 441.925 146.845C441.925 152.09 443.608 156.065 446.973 158.77C450.42 161.393 456.166 162.704 464.21 162.704C470.119 162.704 475.537 162.008 480.462 160.614C485.469 159.221 490.311 157.008 494.99 153.975L490.557 174.507C481.693 179.835 470.818 182.499 457.93 182.499ZM543.776 94.7156H565.199L581.328 180.655H559.659L556.457 162.95H524.692L514.104 180.655H491.08L543.776 94.7156ZM554.611 146.23L550.301 117.338L533.557 146.23H554.611ZM606.962 94.7156H645.622C653.831 94.7156 660.316 96.7648 665.075 100.863C669.92 104.961 672.34 110.494 672.34 117.461C672.34 119.592 672.093 121.846 671.601 124.223C670.289 130.616 667.744 136.066 663.967 140.574C660.274 145.082 655.638 148.443 650.055 150.656L658.919 180.655H636.511L628.508 153.729H616.196L610.533 180.655H588.74L606.962 94.7156ZM633.187 135.411C637.539 135.411 641.067 134.591 643.775 132.952C646.484 131.23 648.291 128.321 649.193 124.223C649.522 122.419 649.685 121.231 649.685 120.657C649.685 117.788 648.7 115.821 646.73 114.756C644.843 113.608 642.052 113.035 638.358 113.035H624.815L620.136 135.411H633.187ZM685.328 94.7156H746.396L742.456 113.035H703.18L699.856 129.14H728.543L724.849 146.23H696.162L692.715 162.336H731.99L728.174 180.655H667.106L685.328 94.7156ZM753.833 94.7156H814.901L810.961 113.035H771.686L768.361 129.14H797.049L793.355 146.23H764.668L761.22 162.336H800.496L796.679 180.655H735.611L753.833 94.7156ZM822.339 94.7156H860.999C869.205 94.7156 875.69 96.7648 880.452 100.863C885.294 104.961 887.716 110.494 887.716 117.461C887.716 119.592 887.47 121.846 886.977 124.223C885.663 130.616 883.118 136.066 879.344 140.574C875.65 145.082 871.012 148.443 865.431 150.656L874.296 180.655H851.888L843.885 153.729H831.573L825.909 180.655H804.117L822.339 94.7156ZM848.564 135.411C852.913 135.411 856.443 134.591 859.152 132.952C861.861 131.23 863.665 128.321 864.569 124.223C864.896 122.419 865.062 121.231 865.062 120.657C865.062 117.788 864.077 115.821 862.107 114.756C860.217 113.608 857.428 113.035 853.735 113.035H840.191L835.513 135.411H848.564Z" fill="#E9E9E9"/>
<path d="M440.324 330.535C434.906 330.535 429.612 330.003 424.441 328.937C419.353 327.953 415.29 326.561 412.252 324.757L416.438 305.208C420.378 307.504 424.604 309.225 429.12 310.372C433.715 311.519 438.19 312.093 442.54 312.093C446.972 312.093 450.379 311.356 452.759 309.88C455.221 308.322 456.452 306.192 456.452 303.487C456.452 301.437 455.467 299.716 453.498 298.323C451.528 296.931 447.834 295.004 442.417 292.545C436.261 289.757 431.745 286.726 428.873 283.447C426.001 280.087 424.564 276.193 424.564 271.767C424.564 270.292 424.77 268.448 425.18 266.235C426.82 258.612 431.007 252.505 437.738 247.916C444.47 243.244 452.965 240.908 463.224 240.908C468.478 240.908 473.074 241.318 477.014 242.137C480.954 242.957 484.607 244.268 487.971 246.072L483.908 265.128C477.589 261.357 470.735 259.473 463.347 259.473C459.407 259.473 456.123 260.127 453.498 261.44C450.952 262.669 449.394 264.473 448.819 266.849C448.736 267.178 448.696 267.627 448.696 268.202C448.696 270.086 449.721 271.727 451.774 273.12C453.907 274.512 457.684 276.356 463.101 278.652C469.503 281.52 474.099 284.513 476.891 287.627C479.682 290.661 481.077 294.389 481.077 298.815C481.077 300.699 480.83 302.832 480.338 305.208C478.697 313.323 474.674 319.593 468.272 324.019C461.87 328.362 452.553 330.535 440.324 330.535ZM513.942 261.071H489.688L493.627 242.752H564.053L560.113 261.071H535.735L521.453 328.691H499.66L513.942 261.071ZM586.189 242.752H607.613L623.741 328.691H602.072L598.871 310.987H567.106L556.517 328.691H533.494L586.189 242.752ZM597.024 294.266L592.715 265.374L575.97 294.266H597.024ZM649.376 242.752H688.036C696.245 242.752 702.73 244.801 707.489 248.899C712.333 252.997 714.753 258.529 714.753 265.497C714.753 267.627 714.507 269.883 714.014 272.259C712.703 278.652 710.157 284.102 706.381 288.611C702.687 293.12 698.051 296.479 692.468 298.692L701.333 328.691H678.925L670.922 301.766H658.61L652.946 328.691H631.154L649.376 242.752ZM675.601 283.447C679.953 283.447 683.48 282.626 686.189 280.988C688.898 279.267 690.704 276.356 691.606 272.259C691.935 270.455 692.099 269.268 692.099 268.694C692.099 265.826 691.114 263.858 689.144 262.792C687.257 261.645 684.465 261.071 680.772 261.071H667.228L662.55 283.447H675.601Z" fill="#E9E9E9"/>
<path d="M414.592 208.255H884.462H414.592Z" fill="#DB00FF"/>
<path d="M414.592 208.255H884.462" stroke="#DB00FF" stroke-width="10" stroke-linecap="round"/>
</svg>
